<?xml version="1.0" standalone="no"?>
<!DOCTYPE svg PUBLIC "-//W3C//DTD SVG 20010904//EN"
 "http://www.w3.org/TR/2001/REC-SVG-20010904/DTD/svg10.dtd">
<svg version="1.0" xmlns="http://www.w3.org/2000/svg"
 width="500.000000pt" height="500.000000pt" viewBox="0 0 500.000000 500.000000"
 preserveAspectRatio="xMidYMid meet">
<g transform="translate(0.000000,500.000000) scale(0.100000,-0.100000)"
fill="#EB2340" stroke="none">
<path d="M3100 3823 l0 -398 396 -397 c218 -219 397 -398 397 -398 1 0 2 358
2 795 l0 795 -397 0 -398 0 0 -397z m763 345 c7 -38 6 -1349 -1 -1420 -3 -35
-7 -45 -18 -41 -8 3 -11 9 -8 14 3 5 -3 9 -12 9 -16 0 -16 1 2 15 16 12 16 14
2 9 -11 -4 -29 4 -49 20 -17 14 -27 26 -22 26 4 1 -3 8 -17 16 -14 8 -17 13
-7 10 11 -3 15 -2 12 4 -3 6 -12 10 -20 10 -7 0 -15 7 -19 15 -3 8 -11 15 -18
15 -15 0 -58 40 -58 55 0 7 -11 17 -25 23 -14 6 -25 17 -25 24 0 9 3 8 11 -2
9 -13 10 -13 6 0 -2 8 -12 13 -23 12 -10 -2 -16 0 -11 4 9 10 -22 44 -40 44
-8 0 -12 4 -9 9 3 4 -6 13 -19 19 -14 7 -25 17 -25 25 0 15 -41 53 -53 49 -5
-1 -6 2 -3 7 3 5 -15 28 -42 51 -26 23 -41 39 -33 35 9 -5 12 -4 7 3 -4 7 -11
12 -17 12 -5 0 -18 9 -29 20 -11 11 -20 24 -20 29 0 6 -4 13 -10 16 -6 3 -7
-1 -4 -12 3 -11 0 -9 -8 5 -8 12 -17 19 -21 16 -4 -4 -7 -1 -7 8 0 19 -34 51
-44 41 -4 -5 -6 -2 -4 4 2 7 -10 23 -27 37 l-30 24 -2 381 -3 381 363 3 c199
1 365 3 368 5 4 1 9 -13 12 -30z"/>
<path d="M3480 3076 c0 -2 7 -7 16 -10 8 -3 12 -2 9 4 -6 10 -25 14 -25 6z"/>
<path d="M3658 2900 c9 -10 18 -13 20 -9 6 14 -2 23 -20 24 -17 2 -17 1 0 -15z"/>
<path d="M1775 3300 c-65 -65 -116 -122 -112 -126 3 -4 14 -1 23 7 10 8 19 13
21 12 1 -2 6 -3 11 -3 4 0 0 5 -8 11 -13 9 -12 10 2 5 18 -5 45 29 40 48 -2 5
4 4 13 -4 13 -11 15 -10 13 10 -2 13 3 24 10 26 7 1 8 0 2 -3 -5 -2 -10 -10
-10 -16 1 -7 9 -1 20 12 11 12 18 27 15 31 -7 11 22 33 33 26 6 -3 15 1 22 9
8 9 8 15 2 15 -6 0 -13 -6 -15 -12 -4 -10 -6 -10 -6 -1 -1 17 19 27 31 15 8
-8 7 -16 -3 -29 -11 -15 -9 -14 9 2 13 11 19 21 13 23 -5 2 -7 10 -4 19 5 12
3 14 -8 8 -8 -4 -11 -5 -8 -1 4 4 252 8 552 9 521 2 546 1 557 -17 6 -10 7
-15 2 -12 -10 6 -30 -12 -31 -28 0 -5 -10 -14 -22 -20 -12 -6 -27 -20 -33 -31
-17 -29 -49 -55 -64 -50 -7 3 -10 1 -7 -4 3 -6 -2 -14 -11 -19 -11 -6 -13 -11
-5 -16 6 -4 11 -3 11 2 0 6 8 13 17 16 15 6 14 4 -2 -14 -10 -11 -25 -18 -32
-15 -8 2 -12 1 -10 -3 7 -10 -19 -32 -29 -24 -4 4 -4 -1 -1 -10 3 -10 1 -20
-5 -24 -6 -4 -9 -3 -6 2 3 5 0 15 -8 22 -12 11 -14 8 -9 -20 3 -18 3 -30 0
-26 -9 8 -45 -23 -45 -38 0 -7 -7 -15 -16 -18 -26 -10 -30 -6 -9 11 14 11 15
14 4 10 -9 -3 -23 0 -30 6 -11 10 -11 9 -1 -5 8 -10 9 -19 3 -22 -5 -3 -8 -14
-7 -23 3 -18 -24 -52 -36 -46 -5 2 -8 -4 -8 -13 0 -16 -1 -16 -15 2 -10 12
-13 13 -10 3 7 -18 -28 -62 -40 -51 -5 4 -5 -1 -2 -10 4 -13 2 -15 -10 -11
-13 5 -15 2 -10 -11 4 -10 3 -15 -3 -11 -6 3 -10 2 -10 -3 0 -14 -86 -72 -96
-64 -5 4 -3 0 3 -9 10 -12 8 -18 -7 -29 -10 -7 -17 -17 -14 -22 3 -4 -2 -8
-11 -8 -9 0 -13 -4 -10 -10 3 -6 -1 -7 -9 -4 -9 3 -14 10 -11 14 3 4 -2 11
-10 14 -13 5 -13 2 0 -24 9 -17 11 -30 6 -30 -5 0 -11 3 -14 8 -2 4 -2 1 -1
-5 4 -16 -33 -36 -48 -27 -6 4 -8 3 -4 -4 3 -6 2 -13 -3 -17 -18 -10 -1064 -6
-1075 5 -5 5 -15 10 -21 10 -5 0 -4 -4 4 -9 8 -5 9 -11 3 -15 -20 -12 -20 23
0 41 12 10 18 12 14 6 -4 -7 -4 -13 1 -13 4 0 15 15 23 33 8 17 21 31 28 30 6
-2 12 4 12 13 0 8 5 12 10 9 6 -3 10 -1 10 6 0 8 5 8 18 -2 14 -11 15 -11 5 1
-20 22 -15 30 17 26 30 -3 30 -3 14 15 -19 21 -6 26 15 7 10 -10 12 -10 7 -1
-8 14 14 53 30 53 6 0 19 10 30 23 l19 22 -25 -20 -25 -19 21 22 c11 13 31 24
45 24 13 1 33 9 43 17 18 15 19 15 12 -4 -4 -11 -3 -16 1 -11 4 4 8 24 9 44 0
23 5 36 12 35 7 -2 9 4 5 14 -5 12 -3 14 7 8 10 -6 12 -4 7 8 -3 8 1 21 9 28
12 10 13 9 9 -3 -4 -9 0 -15 9 -15 8 0 13 4 10 9 -7 12 21 49 31 40 5 -4 5 -2
2 4 -4 7 1 18 10 25 11 10 14 10 9 2 -4 -7 -2 -21 4 -30 9 -16 10 -15 5 5 -4
12 -2 22 4 22 6 0 7 8 4 18 -6 15 -5 16 12 2 17 -14 18 -14 6 8 -6 12 -15 22
-19 22 -4 0 -131 -124 -282 -275 l-275 -275 595 0 595 0 398 397 c218 219 397
399 397 400 0 2 -267 3 -593 3 l-592 0 -120 -120z m1238 86 c4 -10 1 -13 -8
-9 -8 3 -12 9 -9 14 7 12 11 11 17 -5z m-80 -96 c-9 -11 -19 -17 -21 -15 -6 6
18 35 29 35 5 0 1 -9 -8 -20z m-1422 -283 c-6 -8 -8 -17 -5 -20 13 -13 -25
-54 -50 -54 -19 0 -22 2 -13 12 7 7 14 9 15 4 7 -17 21 1 16 19 -5 13 -4 14 4
3 7 -10 11 -10 17 -1 4 6 4 14 1 17 -6 6 12 33 21 33 3 0 0 -6 -6 -13z m944
-197 c-3 -5 -12 -10 -18 -10 -7 0 -6 4 3 10 19 12 23 12 15 0z"/>
<path d="M1825 3320 c-3 -5 -1 -10 4 -10 6 0 11 5 11 10 0 6 -2 10 -4 10 -3 0
-8 -4 -11 -10z"/>
<path d="M1799 3253 c-13 -16 -12 -17 4 -4 9 7 17 15 17 17 0 8 -8 3 -21 -13z"/>
<path d="M1725 3179 c-4 -6 -14 -8 -24 -4 -12 5 -13 4 -4 -6 10 -10 15 -9 27
0 8 7 21 9 27 5 8 -4 9 -3 5 4 -9 15 -23 15 -31 1z"/>
<path d="M1396 2857 c-16 -12 -16 -13 8 -12 14 0 26 4 27 10 1 15 -15 16 -35
2z"/>
<path d="M1209 2803 c-13 -16 -12 -17 4 -4 9 7 17 15 17 17 0 8 -8 3 -21 -13z"/>
<path d="M1330 2766 c7 -7 13 -7 20 0 6 6 3 10 -10 10 -13 0 -16 -4 -10 -10z"/>
<path d="M1229 2719 c-8 -15 -8 -19 0 -15 6 4 11 2 11 -4 0 -6 5 -8 12 -4 9 6
9 9 1 11 -7 3 -9 11 -6 19 8 22 -5 17 -18 -7z"/>
<path d="M1100 1410 l0 -400 1395 0 1395 0 0 400 0 400 -1395 0 -1395 0 0
-400z m2766 9 c1 -260 -2 -366 -10 -371 -6 -4 -624 -8 -1373 -8 l-1363 0 1
370 0 370 1362 2 c749 2 1367 3 1372 2 6 0 10 -130 11 -365z"/>
</g>
</svg>
